<svg width="40" height="40" viewBox="0 0 40 40" xmlns="http://www.w3.org/2000/svg" xmlns:xlink="http://www.w3.org/1999/xlink">
    <defs>
        <path id="ja74t9g2ta" d="M0 0h24v24H0z"/>
    </defs>
    <g fill="none" fill-rule="evenodd">
        <circle cx="20" cy="20" r="19.5" fill="#FFF" stroke="#E1111C"/>
        <g transform="translate(8 8)">
            <mask id="lpyu4tq5vb" fill="#fff">
                <use xlink:href="#ja74t9g2ta"/>
            </mask>
            <g fill="#E1111C" fill-rule="nonzero" mask="url(#lpyu4tq5vb)" opacity=".996">
                <path d="M17.319 4.551C14.199 2.48 9.695 2.504 6.576 4.55a.497.497 0 0 0-.144.679.475.475 0 0 0 .665.147c2.802-1.838 6.898-1.861 9.697-.001.222.148.52.083.665-.144a.497.497 0 0 0-.14-.68z"/>
                <path d="M19.74 9.573c-1.586-2.504-4.425-4.089-7.461-4.224-3.217-.144-6.227 1.332-8.195 4.259a.498.498 0 0 0 .125.683c.219.153.519.096.669-.127C6.654 7.52 9.347 6.2 12.237 6.33c2.732.122 5.283 1.546 6.695 3.776a.475.475 0 0 0 .666.146.497.497 0 0 0 .142-.68z"/>
                <path d="M6.943 11.094c1.158-1.56 3.03-2.464 4.966-2.464 3.648 0 6.333 2.997 6.333 6.364 0 1.01-.803 1.83-1.793 1.83-.99 0-1.797-.82-1.797-1.83v.069c0-1.553-1.233-2.812-2.754-2.812-1.497 0-2.677 1.229-2.754 2.787-.05 1.008.273 2.358.95 3.54.887 1.55 2.298 2.728 4.25 3.339a.48.48 0 0 0 .6-.326.493.493 0 0 0-.318-.613c-1.715-.538-2.934-1.555-3.702-2.896-.582-1.017-.859-2.177-.819-2.995.052-1.05.824-1.854 1.793-1.854.99 0 1.792.82 1.792 1.83v-.069c0 1.553 1.238 2.812 2.76 2.812 1.52 0 2.754-1.259 2.754-2.812 0-3.89-3.096-7.347-7.295-7.347-2.23 0-4.39 1.042-5.733 2.854-1.516 2.045-1.887 4.86-.889 8.128a.48.48 0 0 0 .603.323.493.493 0 0 0 .316-.616c-.91-2.977-.583-5.462.737-7.242z"/>
                <path d="M10.277 20.875c-1.062-.927-2.023-2.81-2.293-4.625-.31-2.085.281-3.78 1.854-4.73 2.808-1.699 6.09.356 6.09 3.606 0 .27.216.49.482.49.265 0 .48-.22.48-.49 0-3.994-4.078-6.547-7.542-4.452-1.948 1.178-2.68 3.274-2.316 5.724.304 2.04 1.374 4.137 2.62 5.224a.474.474 0 0 0 .678-.055.498.498 0 0 0-.053-.692z"/>
                <path d="M11.436 14.979c-.04 1.336.6 2.987 1.706 3.942 1 .865 2.456 1.2 4.263.98a.49.49 0 0 0 .42-.546.483.483 0 0 0-.534-.43c-1.561.19-2.752-.084-3.528-.754-.87-.75-1.397-2.111-1.365-3.162a.487.487 0 0 0-.466-.506.486.486 0 0 0-.496.476z"/>
            </g>
        </g>
    </g>
</svg>
